# xmcd
#
# Track frame offsets:
#	150
#	6829
#	30348
#	47788
#	69080
#	89191
#	113905
#	130772
#	155567
#	187036
#	203066
#	226550
#
# Disc length: 3461 seconds
#
# Revision: 1
# Processed by: cddbd v1.5.2PL0 Copyright (c) Steve Scherf et al.
# Submitted via: audiograbber 1.83.01
#
DISCID=950d830c
DTITLE=Stonewall Noise Orchestra - Constants in an ever changing universe
DYEAR=2008
DGENRE=Rock
TTITLE0=Roll call
TTITLE1=Skyscraper moment
TTITLE2=Hollow parade
TTITLE3=The inventor
TTITLE4=Venus travel agency
TTITLE5=Sideshow messiah
TTITLE6=4:54
TTITLE7=Deadications
TTITLE8=Clone baby
TTITLE9=Headlights
TTITLE10=Dynamo
TTITLE11=Unknown of me
EXTD=
EXTT0=
EXTT1=
EXTT2=
EXTT3=
EXTT4=
EXTT5=
EXTT6=
EXTT7=
EXTT8=
EXTT9=
EXTT10=
EXTT11=
PLAYORDER=
